<svg xmlns="http://www.w3.org/2000/svg" width="30" height="30" fill="none"><path fill="#20744A" fill-rule="evenodd" d="M26.982 4.13h-9.497V1.893L1.875 4.302V25.42l15.61 2.689v-3.317h9.497a1.088 1.088 0 0 0 1.143-1.028V5.157a1.087 1.087 0 0 0-1.143-1.027Zm.15 19.806h-9.679l-.015-1.77h2.331v-2.063h-2.35l-.01-1.22h2.36v-2.062h-2.378l-.012-1.218h2.39V13.54h-2.397v-1.219h2.397V10.26h-2.397V9.04h2.397V6.978h-2.397V5.103h9.76v18.833Z" clip-rule="evenodd"/><path fill="#20744A" d="M21.082 6.975h4.053v2.062h-4.053V6.975Zm0 3.282h4.053v2.062h-4.053v-2.062Zm0 3.282h4.053v2.063h-4.053v-2.063Zm0 3.282h4.053v2.063h-4.053V16.82Zm0 3.282h4.053v2.063h-4.053v-2.063Z"/><path fill="#fff" fill-rule="evenodd" d="m5.95 10.007 2.012-.115 1.264 3.477 1.495-3.62 2.012-.116-2.444 4.937 2.444 4.949-2.128-.144-1.436-3.772-1.437 3.629-1.955-.173 2.271-4.371-2.098-4.681Z" clip-rule="evenodd"/></svg>