<svg xmlns="http://www.w3.org/2000/svg" width="24" height="24" fill="none"><path stroke="#14AE5C" stroke-linecap="round" stroke-linejoin="round" stroke-width="1.5" d="M14.837 21.267c1.38 0 2.07 0 2.638-.137a4.946 4.946 0 0 0 3.655-3.655c.137-.568.137-1.258.137-2.638m-12.365 6.43c-1.38 0-2.07 0-2.638-.137a4.946 4.946 0 0 1-3.655-3.655c-.136-.568-.136-1.258-.136-2.638m6.43-12.364c-1.38 0-2.07 0-2.639.136A4.946 4.946 0 0 0 2.61 6.264c-.136.569-.136 1.26-.136 2.638m12.364-6.43c1.38 0 2.07 0 2.638.137a4.946 4.946 0 0 1 3.655 3.655c.137.569.137 1.26.137 2.638m-6.43.495a2.968 2.968 0 1 0-5.935 0 2.968 2.968 0 0 0 5.935 0Z"/><path stroke="#14AE5C" stroke-linecap="round" stroke-linejoin="round" stroke-width="1.5" d="M16.816 17.31a4.946 4.946 0 0 0-9.892 0"/></svg>