<svg xmlns="http://www.w3.org/2000/svg" width="24" height="24" fill="none"><path stroke="#14AE5C" stroke-linecap="round" stroke-width="1.5" d="M13.5 2.502H12c-4.478 0-6.718 0-8.109 1.392S2.5 7.524 2.5 12c0 4.477 0 6.718 1.391 8.11 1.391 1.39 3.63 1.39 8.109 1.39 4.478 0 6.718 0 8.109-1.39 1.391-1.392 1.391-3.63 1.391-8.11v-1.5"/><path stroke="#14AE5C" stroke-linecap="round" stroke-linejoin="round" stroke-width="1.5" d="m16.5 7.5 4.176-4.179m.824 3.657-.118-3.092c0-.729-.435-1.183-1.228-1.24L17.03 2.5"/><path stroke="#14AB55" stroke-linecap="round" stroke-linejoin="round" stroke-width="1.2" d="M9.145 15.658V9.176a.622.622 0 0 1 1.165-.302l3.59 6.463a.622.622 0 0 0 1.166-.302V8.553M7.96 10.92h8.29M7.96 13.29h8.29"/></svg>