<svg xmlns="http://www.w3.org/2000/svg" width="30" height="30" fill="none"><path fill="#EF5350" d="M16.25 11.25h6.875L16.25 4.375v6.875ZM7.5 2.5h10L25 10v15a2.5 2.5 0 0 1-2.5 2.5h-15A2.5 2.5 0 0 1 5 25V5a2.5 2.5 0 0 1 2.5-2.5Zm6.162 13.05c.513 1.125 1.163 2.05 1.913 2.688l.512.4c-1.087.2-2.587.55-4.175 1.162l-.137.05.625-1.3c.563-1.088.975-2.075 1.262-3Zm8.1 4.762c.226-.225.338-.512.35-.825a1.006 1.006 0 0 0-.15-.687c-.362-.588-1.3-.863-2.85-.863l-1.612.088-1.087-.725c-.788-.65-1.5-1.788-2-3.2l.05-.175c.412-1.663.8-3.675-.025-4.5a1.062 1.062 0 0 0-.763-.3h-.3c-.463 0-.875.488-.988.963-.462 1.662-.187 2.575.275 4.087v.012c-.312 1.1-.712 2.376-1.35 3.663l-1.2 2.25L9 20.712c-1.5.938-2.213 1.988-2.35 2.65-.05.238-.025.45.063.676l.037.062.6.387.55.138c1.012 0 2.162-1.188 3.713-3.837l.225-.088c1.287-.412 2.887-.7 5.037-.938 1.288.638 2.8.925 3.75.925.55 0 .925-.137 1.137-.375Zm-.512-.887.113.137c-.013.125-.05.138-.113.163h-.05l-.238.025c-.575 0-1.462-.238-2.375-.637.113-.125.163-.125.288-.125 1.75 0 2.25.312 2.375.437ZM9.787 21.25c-.812 1.488-1.55 2.313-2.112 2.5.063-.475.625-1.3 1.513-2.113l.6-.387Zm3.775-8.637c-.287-1.125-.3-2.038-.087-2.563l.088-.15.187.063c.213.3.238.7.113 1.375l-.038.2-.2 1.024-.063.05Z"/></svg>